<svg width="96" height="96" viewBox="0 0 96 96" fill="none" xmlns="http://www.w3.org/2000/svg">
  <defs>
    <linearGradient id="coraA" x1="18" y1="20" x2="76" y2="78" gradientUnits="userSpaceOnUse">
      <stop stop-color="#A79BFF"/>
      <stop offset="1" stop-color="#61D8FF"/>
    </linearGradient>
    <linearGradient id="coraB" x1="26" y1="24" x2="68" y2="72" gradientUnits="userSpaceOnUse">
      <stop stop-color="#FFFFFF"/>
      <stop offset="1" stop-color="#D8D5FF"/>
    </linearGradient>
  </defs>
  <rect x="7" y="7" width="82" height="82" rx="27" fill="#111116"/>
  <rect x="7.5" y="7.5" width="81" height="81" rx="26.5" stroke="#FFFFFF" stroke-opacity=".08"/>
  <path d="M65.5 29.5C60.8 25.3 54.7 23 48 23C33.1 23 22 33.8 22 48C22 62.2 33.1 73 48 73C54.9 73 61.1 70.5 65.8 66.2" stroke="url(#coraB)" stroke-width="11" stroke-linecap="round"/>
  <path d="M67.5 35.5L76 44L67.5 52.5" stroke="url(#coraA)" stroke-width="6" stroke-linecap="round" stroke-linejoin="round"/>
  <circle cx="74.5" cy="26.5" r="4.5" fill="#8B7CFF"/>
  <circle cx="77" cy="63" r="3" fill="#61D8FF"/>
  <path d="M70.7 29.4L64.5 35.2M74.5 31V38.5M73.7 59.8L67.5 54.2" stroke="url(#coraA)" stroke-width="1.8" stroke-linecap="round" opacity=".8"/>
</svg>
